<svg width="512" height="512" viewBox="0 0 512 512" fill="none" xmlns="http://www.w3.org/2000/svg">
<path d="M355.696 87.6727C372.704 86.1706 411.821 89.4752 432.23 114.711C453.282 140.741 454.553 152.619 455.06 159.842L455.46 164.692C455.46 164.692 471.06 171.191 474.673 142.642C482.986 165.099 459.859 177.256 459.859 177.256C467.95 197.87 484.384 189.866 493.976 193.879C503.568 197.892 502.379 206.734 500.023 209.855C497.667 212.976 491.067 215.724 492.077 221.966C493.086 228.208 504.025 231.478 504.025 234.599C504.025 237.72 499.481 243.814 498.135 244.557C496.789 245.3 506.381 244.854 506.212 249.462C506.044 254.069 499.818 258.825 500.996 265.514C502.174 272.202 510.588 275.174 510.251 282.308C509.915 289.443 502.916 308.019 477.716 313.919C448.615 320.734 432.292 330.137 424.118 362.291C427.325 374.378 445.446 381.943 445.446 381.943C465.086 389.156 479.051 374.1 466.091 359.373C454.604 350.096 440.395 348.902 437.978 351.669C444.149 342.29 488.264 353.254 474.927 379.402C463.67 399.603 433.771 386.218 421.187 376.953C438.022 397.575 469.626 404.437 481.407 382.642C490.832 358.932 464.851 342.749 447.723 341.771C478.462 341.26 496.87 361.288 488.476 383.231C475.516 409.15 447.723 405.892 419.003 395.836C419.003 395.836 340.991 531.998 206.882 491.909C201.333 490.457 198.25 489.11 198.25 489.11C201.152 490.124 204.03 491.057 206.882 491.909C223.93 496.371 264.258 501.824 310.003 472.243C360.548 439.558 377.416 421.225 385.971 388.105C392.815 361.609 383.497 341.738 376.26 333.41C383.715 323.919 391.733 291.07 388.5 276.115C383.889 254.786 368.5 226.115 337.423 210.688C311.474 194.031 272.273 202.064 252.851 213.162C241.907 130.388 310.228 88.2316 344.657 87.6727C339.176 98.3338 329.089 114.711 324.924 138.237C320.759 161.763 337.423 179.505 361.108 194.031C384.794 208.558 412.405 221.966 419.003 256.786C424.282 284.642 394.907 321.968 376.26 333.41C424.944 307.262 428.678 274.423 427.554 256.786C425.335 221.966 388.082 203.387 355.696 182.41C329.788 165.629 327.801 142.08 337.423 119.656C352.686 151.266 374.046 146.34 382.818 139.926C370.318 145.669 350.578 139.926 344.657 123.723C339.921 110.762 350.043 94.2889 355.696 87.6727Z" fill="url(#paint0_radial_44_46)"/>
<path d="M194.081 244.872C202.92 238.453 217.011 230.128 222.367 227.156C222.367 201.226 163.496 145.475 125.279 115.898C87.0622 86.3205 67.9538 42.5623 64.4795 31.2176C61.0052 19.8729 65.7824 8.93338 59.7024 8.93338C53.6224 8.93338 52.3195 12.1747 47.5424 24.3298C42.7653 36.4848 30.6053 70.9241 47.5424 103.743C64.4795 136.561 99.2222 164.518 125.279 181.535C146.125 195.149 180.473 232.717 194.081 244.872Z" fill="url(#paint1_radial_44_46)"/>
<path d="M163.113 274.134C169.019 264.085 182.077 254.842 186.42 250.52C182.511 241.607 144.388 201.793 92.2736 171.406C40.1596 141.018 30.6053 85.5102 27.131 85.9154C24.3516 86.2395 23.6568 89.5619 23.6568 91.1825C20.0378 99.421 13.1472 120.679 14.5369 139.803C16.274 163.708 40.5939 192.88 59.7024 208.681C74.9892 221.323 134.884 259.547 163.113 274.134Z" fill="url(#paint2_radial_44_46)"/>
<path d="M147.279 314.295C147.279 302.626 153.249 289.471 158.551 281.46C155.076 276.193 121.189 253.93 76.0237 234.482C30.8582 215.034 14.3553 172.491 12.184 168.845C10.0127 165.198 4.80096 170.871 4.80096 178.974C4.80096 187.077 0.0238414 191.534 8.70952 223.948C17.3952 256.361 59.5208 278.646 71.6807 283.913C81.4086 288.126 125.13 305.921 147.279 314.295Z" fill="url(#paint3_radial_44_46)"/>
<path d="M148.536 352.316C147.279 350.119 145.637 333.303 146.626 321.433C140.546 317.382 110.079 308.353 98.7881 305.922C87.4967 303.491 67.9539 297.413 50.1482 288.499C32.3426 279.586 28.4341 262.974 23.6568 263.784C18.9342 264.585 20.5781 272.91 23.5531 287.974L23.6568 288.499C26.6967 303.896 30.6055 311.189 54.4911 328.206C73.5996 341.82 123.347 350.696 148.536 352.316Z" fill="url(#paint4_radial_44_46)"/>
<path d="M153.901 365.65C153.274 364.118 150.095 359.64 149.95 357.344C142.567 355.318 122.674 354.542 94.4452 353.732C66.2168 352.921 45.8054 331.042 42.7654 331.852C39.7254 332.663 41.0283 337.525 42.7654 341.577C44.5026 345.628 47.9768 365.481 71.8623 377.231C90.9706 386.631 126.191 385.949 144.866 383.923C146.751 375.91 151.585 369.297 153.901 365.65Z" fill="url(#paint5_radial_44_46)"/>
<path d="M143.388 418.248C142.693 415.331 142.23 401.944 143.388 394.921C140.637 395.596 135.876 395.221 117.462 399.11C94.4452 403.973 74.0339 392.223 71.8623 392.223C69.6907 392.223 67.5196 403.162 88.3652 416.938C105.042 427.958 131.083 422.84 143.388 418.248Z" fill="url(#paint6_radial_44_46)"/>
<path d="M152.653 450.67C150.511 446.819 145.734 436.823 144.866 430.475C140.523 431.556 133.862 429.503 127.956 430.475C120.573 431.691 108.413 427.234 106.676 428.449C104.938 429.665 104.938 430.88 114.927 441.82C122.918 450.572 143.678 452.426 152.653 450.67Z" fill="url(#paint7_radial_44_46)"/>
<path d="M171.679 475.005C167.139 472.439 159.209 464.353 157.182 460.031C152.116 459.085 138.039 457.599 139.776 463.109C141.513 468.619 164.148 475.005 171.679 475.005Z" fill="url(#paint8_radial_44_46)"/>
<path d="M360.993 254.421C336.693 219.766 288.703 209.494 254.003 231.524L193.062 270.226C184.83 275.387 177.769 282.202 172.33 290.237C166.891 298.272 163.195 307.349 161.477 316.888C158.57 332.956 161.125 349.532 168.738 363.99C163.521 371.875 159.963 380.732 158.279 390.025C156.543 399.757 156.775 409.736 158.96 419.377C161.146 429.018 165.241 438.127 171.007 446.17C195.311 480.827 243.302 491.095 277.996 469.066L338.937 430.364C347.17 425.204 354.231 418.389 359.67 410.354C365.109 402.319 368.805 393.242 370.522 383.702C373.429 367.634 370.876 351.059 363.267 336.599C368.482 328.714 372.038 319.858 373.721 310.565C375.458 300.834 375.227 290.854 373.042 281.213C370.856 271.572 366.76 262.463 360.993 254.421" fill="#FF3E00"/>
<path d="M248.049 449.43C238.459 451.915 228.335 451.407 219.043 447.976C209.752 444.544 201.741 438.354 196.093 430.241C192.626 425.404 190.162 419.926 188.848 414.128C187.533 408.33 187.394 402.329 188.438 396.477C188.791 394.556 189.278 392.661 189.894 390.806L191.042 387.319L194.164 389.604C201.374 394.884 209.436 398.897 218.003 401.473L220.268 402.157L220.059 404.41C219.782 407.614 220.653 410.813 222.517 413.439C224.217 415.882 226.628 417.748 229.426 418.782C232.223 419.817 235.272 419.971 238.16 419.224C239.484 418.871 240.747 418.318 241.903 417.585L302.846 378.887C304.337 377.952 305.616 376.717 306.602 375.261C307.588 373.806 308.258 372.162 308.571 370.434C308.884 368.67 308.841 366.861 308.445 365.114C308.049 363.367 307.308 361.716 306.264 360.257C304.563 357.813 302.151 355.947 299.353 354.912C296.554 353.877 293.505 353.722 290.615 354.468C289.292 354.821 288.032 355.374 286.877 356.106L263.622 370.878C259.798 373.301 255.624 375.127 251.247 376.293C241.657 378.778 231.532 378.27 222.241 374.838C212.95 371.406 204.939 365.216 199.291 357.103C195.824 352.267 193.36 346.789 192.045 340.991C190.731 335.193 190.592 329.192 191.636 323.34C192.669 317.604 194.892 312.145 198.162 307.314C201.433 302.483 205.68 298.385 210.631 295.283L271.568 256.582C275.394 254.155 279.57 252.327 283.952 251.16C293.542 248.676 303.666 249.184 312.957 252.616C322.248 256.047 330.259 262.237 335.906 270.35C339.374 275.187 341.838 280.665 343.152 286.463C344.467 292.26 344.606 298.262 343.562 304.114C343.207 306.035 342.72 307.93 342.106 309.784L340.958 313.272L337.838 310.99C330.628 305.708 322.565 301.692 313.997 299.117L311.732 298.432L311.941 296.179C312.215 292.975 311.345 289.777 309.483 287.151C307.783 284.707 305.372 282.842 302.574 281.807C299.777 280.773 296.728 280.618 293.84 281.365C292.515 281.718 291.253 282.271 290.097 283.005L229.154 321.704C227.663 322.639 226.384 323.873 225.399 325.328C224.414 326.783 223.744 328.427 223.433 330.155C223.118 331.919 223.16 333.727 223.555 335.475C223.951 337.223 224.692 338.874 225.736 340.333C227.436 342.777 229.849 344.643 232.647 345.678C235.446 346.713 238.495 346.868 241.385 346.121C242.709 345.768 243.971 345.215 245.128 344.482L268.38 329.716C272.202 327.29 276.375 325.462 280.753 324.297C290.344 321.812 300.468 322.32 309.759 325.752C319.05 329.183 327.061 335.374 332.709 343.487C336.176 348.323 338.64 353.801 339.955 359.599C341.269 365.397 341.409 371.398 340.364 377.25C339.331 382.987 337.107 388.445 333.837 393.277C330.566 398.109 326.32 402.208 321.369 405.311L260.431 444.009C256.606 446.436 252.43 448.264 248.048 449.43" fill="white"/>
<defs>
<radialGradient id="paint0_radial_44_46" cx="0" cy="0" r="1" gradientUnits="userSpaceOnUse" gradientTransform="translate(319.807 439.167) rotate(-69.3229) scale(447.944 257.38)">
<stop stop-color="#015751"/>
<stop offset="1" stop-color="#00FFEE"/>
</radialGradient>
<radialGradient id="paint1_radial_44_46" cx="0" cy="0" r="1" gradientUnits="userSpaceOnUse" gradientTransform="translate(28.6693 101.082) rotate(60.1524) scale(414.849 347.87)">
<stop stop-color="#00FFEE"/>
<stop offset="1" stop-color="#084D48"/>
</radialGradient>
<radialGradient id="paint2_radial_44_46" cx="0" cy="0" r="1" gradientUnits="userSpaceOnUse" gradientTransform="translate(28.6693 101.082) rotate(60.1524) scale(414.849 347.87)">
<stop stop-color="#00FFEE"/>
<stop offset="1" stop-color="#084D48"/>
</radialGradient>
<radialGradient id="paint3_radial_44_46" cx="0" cy="0" r="1" gradientUnits="userSpaceOnUse" gradientTransform="translate(28.6693 101.082) rotate(60.1524) scale(414.849 347.87)">
<stop stop-color="#00FFEE"/>
<stop offset="1" stop-color="#084D48"/>
</radialGradient>
<radialGradient id="paint4_radial_44_46" cx="0" cy="0" r="1" gradientUnits="userSpaceOnUse" gradientTransform="translate(28.6693 101.082) rotate(60.1524) scale(414.849 347.87)">
<stop stop-color="#00FFEE"/>
<stop offset="1" stop-color="#084D48"/>
</radialGradient>
<radialGradient id="paint5_radial_44_46" cx="0" cy="0" r="1" gradientUnits="userSpaceOnUse" gradientTransform="translate(28.6693 101.082) rotate(60.1524) scale(414.849 347.87)">
<stop stop-color="#00FFEE"/>
<stop offset="1" stop-color="#084D48"/>
</radialGradient>
<radialGradient id="paint6_radial_44_46" cx="0" cy="0" r="1" gradientUnits="userSpaceOnUse" gradientTransform="translate(28.6693 101.082) rotate(60.1524) scale(414.849 347.87)">
<stop stop-color="#00FFEE"/>
<stop offset="1" stop-color="#084D48"/>
</radialGradient>
<radialGradient id="paint7_radial_44_46" cx="0" cy="0" r="1" gradientUnits="userSpaceOnUse" gradientTransform="translate(28.6693 101.082) rotate(60.1524) scale(414.849 347.87)">
<stop stop-color="#00FFEE"/>
<stop offset="1" stop-color="#084D48"/>
</radialGradient>
<radialGradient id="paint8_radial_44_46" cx="0" cy="0" r="1" gradientUnits="userSpaceOnUse" gradientTransform="translate(28.6693 101.082) rotate(60.1524) scale(414.849 347.87)">
<stop stop-color="#00FFEE"/>
<stop offset="1" stop-color="#084D48"/>
</radialGradient>
</defs>
</svg>
